<svg width="32" height="32" viewBox="0 0 32 32" fill="none" xmlns="http://www.w3.org/2000/svg">
<path d="M15.9998 2.66675C8.65317 2.66675 2.6665 8.65341 2.6665 16.0001C2.6665 23.3467 8.65317 29.3334 15.9998 29.3334C23.3465 29.3334 29.3332 23.3467 29.3332 16.0001C29.3332 8.65341 23.3465 2.66675 15.9998 2.66675ZM21.3332 17.0001H16.9998V21.3334C16.9998 21.8801 16.5465 22.3334 15.9998 22.3334C15.4532 22.3334 14.9998 21.8801 14.9998 21.3334V17.0001H10.6665C10.1198 17.0001 9.6665 16.5467 9.6665 16.0001C9.6665 15.4534 10.1198 15.0001 10.6665 15.0001H14.9998V10.6667C14.9998 10.1201 15.4532 9.66675 15.9998 9.66675C16.5465 9.66675 16.9998 10.1201 16.9998 10.6667V15.0001H21.3332C21.8798 15.0001 22.3332 15.4534 22.3332 16.0001C22.3332 16.5467 21.8798 17.0001 21.3332 17.0001Z" fill="black"/>
</svg>
