<svg width="1em" height="1em" viewBox="0 0 32 32" fill="none" xmlns="http://www.w3.org/2000/svg">
<path d="M16.0001 2.66675C8.65341 2.66675 2.66675 8.65341 2.66675 16.0001C2.66675 23.3467 8.65341 29.3334 16.0001 29.3334C23.3467 29.3334 29.3334 23.3467 29.3334 16.0001C29.3334 8.65341 23.3467 2.66675 16.0001 2.66675ZM21.8001 20.7601C21.6134 21.0801 21.2801 21.2534 20.9334 21.2534C20.7601 21.2534 20.5867 21.2134 20.4267 21.1067L16.2934 18.6401C15.2667 18.0267 14.5067 16.6801 14.5067 15.4934V10.0267C14.5067 9.48008 14.9601 9.02675 15.5067 9.02675C16.0534 9.02675 16.5067 9.48008 16.5067 10.0267V15.4934C16.5067 15.9734 16.9067 16.6801 17.3201 16.9201L21.4534 19.3867C21.9334 19.6667 22.0934 20.2801 21.8001 20.7601Z" fill="currentColor"/>
</svg>
