<svg width="32" height="32" viewBox="0 0 32 32" fill="none" xmlns="http://www.w3.org/2000/svg">
<path d="M27.4667 5.46672V8.40005C27.4667 9.46672 26.8 10.8 26.1333 11.4667L20.4 16.5334C19.6 17.2 19.0667 18.5334 19.0667 19.6V25.3334C19.0667 26.1334 18.5333 27.2001 17.8667 27.6L16 28.8C14.2667 29.8667 11.8667 28.6667 11.8667 26.5334V19.4667C11.8667 18.5334 11.3333 17.3334 10.8 16.6667L10.1733 16.0134C9.76001 15.5734 9.68001 14.9067 10.0133 14.3867L16.84 3.42672C17.08 3.04005 17.5067 2.80005 17.9733 2.80005H24.8C26.2667 2.80005 27.4667 4.00005 27.4667 5.46672Z" fill="currentColor"/>
<path d="M13.8001 4.84005L9.06678 12.4267C8.61345 13.16 7.57345 13.2667 6.97345 12.64L5.73345 11.3334C5.06678 10.6667 4.53345 9.46672 4.53345 8.66672V5.60005C4.53345 4.00005 5.73345 2.80005 7.20011 2.80005H12.6668C13.7068 2.80005 14.3468 3.94672 13.8001 4.84005Z" fill="currentColor"/>
</svg>
