<svg width="24" height="24" viewBox="0 0 24 24" fill="none" xmlns="http://www.w3.org/2000/svg">
<path d="M20.8999 9.85L21.4899 19.74C21.5099 20.01 21.3799 20.19 21.3099 20.27C21.2299 20.36 21.0599 20.5 20.7799 20.5H18.0499L20.2099 9.85H20.8999ZM21.9999 6L21.9899 6.02C22.0099 6.26 21.9899 6.51 21.9299 6.76L14.5599 20.29C14.3199 21.3 13.4199 22 12.3799 22H20.7799C22.0699 22 23.0899 20.91 22.9899 19.62L21.9999 6Z" fill="currentColor"/>
<path d="M11.4502 2.24039C11.5502 1.84039 11.3002 1.43039 10.9002 1.33039C10.5002 1.24039 10.0902 1.48039 9.99023 1.88039L9.49023 3.95039H11.0302L11.4502 2.24039Z" fill="currentColor"/>
<path d="M18.0499 2.20957C18.1399 1.79957 17.8799 1.40957 17.4699 1.31957C17.0699 1.22957 16.6699 1.48957 16.5799 1.89957L16.1299 3.96957H17.6699L18.0499 2.20957Z" fill="currentColor"/>
<path d="M21.8202 5.33043C21.4902 4.53043 20.7102 3.96043 19.7502 3.96043H17.6702L17.1102 6.55043C17.0302 6.90043 16.7202 7.14043 16.3802 7.14043C16.3302 7.14043 16.2702 7.14043 16.2202 7.12043C15.8202 7.03043 15.5602 6.63043 15.6402 6.23043L16.1302 3.95043H11.0302L10.4002 6.55043C10.3202 6.89043 10.0102 7.12043 9.67024 7.12043C9.61024 7.12043 9.55024 7.11043 9.49024 7.10043C9.09024 7.00043 8.84024 6.60043 8.94024 6.19043L9.48024 3.94043H7.45024C6.47024 3.94043 5.60024 4.58043 5.31024 5.52043L1.10024 19.0704C0.660243 20.5204 1.73024 22.0004 3.24024 22.0004H16.3802C17.4202 22.0004 18.3202 21.3004 18.5602 20.2904L21.9302 6.76043C21.9902 6.51043 22.0102 6.26043 21.9902 6.02043C21.9702 5.78043 21.9202 5.54043 21.8202 5.33043ZM14.7002 16.7504H6.70024C6.29024 16.7504 5.95024 16.4104 5.95024 16.0004C5.95024 15.5904 6.29024 15.2504 6.70024 15.2504H14.7002C15.1102 15.2504 15.4502 15.5904 15.4502 16.0004C15.4502 16.4104 15.1102 16.7504 14.7002 16.7504ZM15.7002 12.7504H7.70024C7.29024 12.7504 6.95024 12.4104 6.95024 12.0004C6.95024 11.5904 7.29024 11.2504 7.70024 11.2504H15.7002C16.1102 11.2504 16.4502 11.5904 16.4502 12.0004C16.4502 12.4104 16.1102 12.7504 15.7002 12.7504Z" fill="currentColor"/>
</svg>
