<svg width="24" height="24" viewBox="0 0 24 24" fill="none" xmlns="http://www.w3.org/2000/svg">
<path d="M19.08 15.7203C18.49 12.1903 15.1 9.32031 11.52 9.32031C7.63003 9.32031 4.21003 12.4703 3.88003 16.3503C3.75003 17.8503 4.23003 19.2703 5.22003 20.3403C6.20003 21.4103 7.58003 22.0003 9.08003 22.0003H13.76C15.45 22.0003 16.93 21.3403 17.94 20.1503C18.95 18.9603 19.35 17.3803 19.08 15.7203Z" fill="currentColor"/>
<path d="M10.2801 7.86C11.8983 7.86 13.2101 6.54819 13.2101 4.93C13.2101 3.31181 11.8983 2 10.2801 2C8.6619 2 7.3501 3.31181 7.3501 4.93C7.3501 6.54819 8.6619 7.86 10.2801 7.86Z" fill="currentColor"/>
<path d="M16.94 9.03039C18.2876 9.03039 19.38 7.93797 19.38 6.59039C19.38 5.24282 18.2876 4.15039 16.94 4.15039C15.5924 4.15039 14.5 5.24282 14.5 6.59039C14.5 7.93797 15.5924 9.03039 16.94 9.03039Z" fill="currentColor"/>
<path d="M20.5501 12.9303C21.6271 12.9303 22.5001 12.0572 22.5001 10.9803C22.5001 9.90332 21.6271 9.03027 20.5501 9.03027C19.4731 9.03027 18.6001 9.90332 18.6001 10.9803C18.6001 12.0572 19.4731 12.9303 20.5501 12.9303Z" fill="currentColor"/>
<path d="M3.94 10.9796C5.28757 10.9796 6.38 9.88718 6.38 8.53961C6.38 7.19203 5.28757 6.09961 3.94 6.09961C2.59243 6.09961 1.5 7.19203 1.5 8.53961C1.5 9.88718 2.59243 10.9796 3.94 10.9796Z" fill="currentColor"/>
</svg>
