<svg width="72" height="72" viewBox="0 0 72 72" fill="none" xmlns="http://www.w3.org/2000/svg">
<path d="M66.0003 49.5V58.5C66.0003 62.64 62.6403 66 58.5003 66H37.0803C34.4103 66 33.0903 62.79 34.9503 60.9L52.5603 42.9C53.1303 42.33 53.9103 42 54.6903 42H58.5003C62.6403 42 66.0003 45.36 66.0003 49.5Z" fill="black"/>
<path d="M55.11 33.8701L46.98 42.0001L39.6 49.3501C37.71 51.2401 34.47 49.9201 34.47 47.2501C34.47 37.6201 34.47 21.7801 34.47 21.7801C34.47 20.9701 34.8 20.2201 35.34 19.6501L38.1 16.8901C41.04 13.9501 45.78 13.9501 48.72 16.8901L55.08 23.2501C58.05 26.1901 58.05 30.9301 55.11 33.8701Z" fill="black"/>
<path d="M13.2609 63.9508C12.5591 63.5887 11.8933 63.1858 11.2781 62.7239L11.2512 62.697L11.1997 62.6574C10.8273 62.3709 10.5198 62.1117 10.2472 61.8143C9.92137 61.4589 9.61003 61.119 9.30047 60.7542C8.82833 60.13 8.4177 59.4533 8.04924 58.7392C8.02465 58.6268 7.97957 58.5132 7.90949 58.4058C7.90259 58.3953 7.89559 58.385 7.88849 58.3749C7.75028 58.0363 7.62729 57.6695 7.49247 57.2651C7.38799 56.9238 7.30723 56.5774 7.2186 56.1934C7.08069 55.4711 7 54.731 7 54V13.5C7 11.4772 7.66989 9.86933 8.76961 8.76961C9.86933 7.66989 11.4772 7 13.5 7H22.5C24.5228 7 26.1307 7.66989 27.2304 8.76961C28.3301 9.86933 29 11.4772 29 13.5V54C29 56.9626 27.794 59.6843 25.8678 61.6679L25.7529 61.7829L26.46 62.49L25.7529 61.7829C25.5056 62.0302 25.2367 62.2713 25.0061 62.4506L24.9851 62.4669L24.9651 62.4843C24.1551 63.1863 23.2325 63.73 22.2786 64.1115L22.2572 64.1201L22.2362 64.1296C21.9511 64.2593 21.6612 64.3655 21.3314 64.4854C20.2787 64.8347 19.1314 65 18 65C17.269 65 16.5291 64.9193 15.8069 64.7815C15.4195 64.692 15.0703 64.6106 14.7261 64.5048C14.3171 64.377 13.9653 64.2596 13.6278 64.1135C13.617 64.1057 13.6058 64.0981 13.5943 64.0906C13.4869 64.0205 13.3733 63.9754 13.2609 63.9508ZM12.5 54C12.5 57.0423 14.9577 59.5 18 59.5C21.0423 59.5 23.5 57.0423 23.5 54C23.5 50.9577 21.0423 48.5 18 48.5C14.9577 48.5 12.5 50.9577 12.5 54Z" fill="#1E90FF" stroke="black" stroke-width="2"/>
</svg>
