<svg width="71" height="76" viewBox="0 0 71 76" fill="none" xmlns="http://www.w3.org/2000/svg">
<path d="M2 17.4286L1.44363 16.2695C0.991718 16.4864 0.707081 16.9462 0.714424 17.4474C0.721766 17.9486 1.01975 18.3999 1.47782 18.6035L2 17.4286ZM34.1429 2L34.665 0.825099L34.1221 0.5838L33.5865 0.840899L34.1429 2ZM68.8571 17.4286L69.4135 18.5877C69.8654 18.3708 70.1501 17.911 70.1427 17.4097C70.1354 16.9085 69.8374 16.4573 69.3793 16.2537L68.8571 17.4286ZM36.7143 32.8571L36.1921 34.032L36.735 34.2733L37.2707 34.0162L36.7143 32.8571ZM2.55637 18.5877L34.6992 3.1591L33.5865 0.840899L1.44363 16.2695L2.55637 18.5877ZM33.6207 3.1749L68.335 18.6035L69.3793 16.2537L34.665 0.825099L33.6207 3.1749ZM68.3008 16.2695L36.1579 31.698L37.2707 34.0162L69.4135 18.5877L68.3008 16.2695ZM37.2365 31.6822L2.52218 16.2537L1.47782 18.6035L36.1921 34.032L37.2365 31.6822Z" fill="black"/>
<path d="M36.7144 32.8572L36.158 31.6981L35.4286 32.0481V32.8572H36.7144ZM68.8572 17.4286H70.1429C70.1429 16.9867 69.916 16.5757 69.542 16.3404C69.1679 16.105 68.6992 16.0783 68.3008 16.2695L68.8572 17.4286ZM68.8572 58.5714L69.4136 59.7305L70.1429 59.3805V58.5714H68.8572ZM36.7144 74H35.4286C35.4286 74.4419 35.6556 74.8529 36.0296 75.0882C36.4036 75.3236 36.8723 75.3503 37.2707 75.1591L36.7144 74ZM37.2707 34.0163L69.4136 18.5877L68.3008 16.2695L36.158 31.6981L37.2707 34.0163ZM67.5715 17.4286V58.5714H70.1429V17.4286H67.5715ZM68.3008 57.4123L36.158 72.8409L37.2707 75.1591L69.4136 59.7305L68.3008 57.4123ZM38.0001 74V32.8572H35.4286V74H38.0001Z" fill="black"/>
<path d="M36.7143 74V32.8572L2 17.4286V58.5714L36.7143 74Z" fill="#1E90FF"/>
<path d="M36.7143 32.8572H38V32.0216L37.2365 31.6823L36.7143 32.8572ZM36.7143 74L36.1921 75.1749C36.5898 75.3517 37.05 75.3152 37.4149 75.0781C37.7798 74.8409 38 74.4352 38 74H36.7143ZM2 58.5714H0.714286V59.407L1.47782 59.7463L2 58.5714ZM2 17.4286L2.52218 16.2537C2.12447 16.0769 1.66433 16.1134 1.2994 16.3505C0.934465 16.5877 0.714286 16.9934 0.714286 17.4286H2ZM35.4286 32.8572V74H38V32.8572H35.4286ZM37.2365 72.8251L2.52218 57.3965L1.47782 59.7463L36.1921 75.1749L37.2365 72.8251ZM3.28571 58.5714V17.4286H0.714286V58.5714H3.28571ZM1.47782 18.6035L36.1921 34.0321L37.2365 31.6823L2.52218 16.2537L1.47782 18.6035Z" fill="black"/>
</svg>
