<svg width="74" height="75" viewBox="0 0 74 75" fill="none" xmlns="http://www.w3.org/2000/svg">
<path d="M68.1671 2H6.0079C3.3329 2 1.24853 4.31962 1.53351 6.9794L7.434 62.0507C7.62572 63.84 8.86502 65.3431 10.585 65.8723L35.724 73.6074C36.5567 73.8636 37.4459 73.8726 38.2837 73.6332L65.472 65.8651C67.2902 65.3457 68.5896 63.745 68.7244 61.8589L72.6557 6.82061C72.8417 4.21571 70.7786 2 68.1671 2Z" fill="#1E90FF" stroke="black" stroke-width="2.25"/>
<path d="M25.75 20H59.5V13.25H14.5V26.75H16.75V38H48.25V49.25H39.25V51.5H34.75V49.25H28V47H25.75V42.5H19V53.75H25.75V56H32.5V58.25H41.5V56H50.5V53.75H57.25V29H25.75V20Z" fill="white"/>
</svg>
