<svg width="86" height="76" viewBox="0 0 86 76" fill="none" xmlns="http://www.w3.org/2000/svg">
<path d="M2.47418 53.2011L13.8696 69.7763C14.9995 71.4198 17.4612 71.3091 18.439 69.5708L39.7888 31.6157C40.272 30.7566 40.2476 29.7022 39.7252 28.8663L29.4427 12.4143C28.373 10.7028 25.8708 10.7313 24.8404 12.4667L2.37767 50.2986C1.84118 51.2022 1.87885 52.3352 2.47418 53.2011Z" fill="#1E90FF" stroke="black" stroke-width="2.30569"/>
<path d="M35.5954 51.989L26.9386 70.1453C26.0802 71.9456 27.407 74.0222 29.4013 73.9998L72.9462 73.5117C73.9319 73.5006 74.8329 72.9523 75.2956 72.0819L84.4021 54.951C85.3495 53.1689 84.0737 51.0161 82.0555 50.9915L38.0608 50.4542C37.0101 50.4413 36.0477 51.0405 35.5954 51.989Z" fill="#1E90FF" stroke="black" stroke-width="2.30569"/>
<path d="M59.6412 45.0414L78.7913 44.5032C80.8612 44.445 82.0949 42.1711 81.0151 40.4042L58.3338 3.28961C57.8204 2.44949 56.8897 1.95623 55.9062 2.00306L37.2548 2.8911C35.2164 2.98815 34.0213 5.22773 35.0756 6.97505L57.2581 43.7398C57.7598 44.5714 58.6703 45.0687 59.6412 45.0414Z" fill="#1E90FF" stroke="black" stroke-width="2.30569"/>
</svg>
