<svg width="12" height="13" viewBox="0 0 12 13" fill="none" xmlns="http://www.w3.org/2000/svg">
<path d="M9.53906 2.21094C8.92969 1.60156 7.92188 1.60156 7.3125 2.21094L2.83594 6.71094C1.80469 7.74219 1.80469 9.40625 2.83594 10.4141C3.84375 11.4453 5.50781 11.4453 6.53906 10.4141L10.1016 6.85156C10.3125 6.64062 10.6641 6.64062 10.875 6.85156C11.1094 7.08594 11.1094 7.4375 10.875 7.64844L7.33594 11.2109C5.85938 12.6875 3.49219 12.6875 2.03906 11.2109C0.5625 9.75781 0.5625 7.39062 2.03906 5.91406L6.53906 1.41406C7.57031 0.382812 9.28125 0.382812 10.3359 1.41406C11.3672 2.46875 11.3672 4.17969 10.3359 5.21094L6.02344 9.52344C5.27344 10.2734 4.05469 10.2031 3.39844 9.38281C2.83594 8.67969 2.90625 7.67188 3.53906 7.03906L7.10156 3.47656C7.3125 3.26562 7.66406 3.26562 7.875 3.47656C8.10938 3.71094 8.10938 4.0625 7.875 4.27344L4.33594 7.83594C4.10156 8.07031 4.07812 8.42188 4.28906 8.67969C4.52344 8.96094 4.94531 9.00781 5.22656 8.72656L9.53906 4.41406C10.1484 3.80469 10.1484 2.82031 9.53906 2.21094Z" fill="black"/>
</svg>
