<svg width="20" height="18" viewBox="0 0 20 18" fill="none" xmlns="http://www.w3.org/2000/svg">
<path d="M10.2497 6.66666V9.99999M10.2497 13.3333H10.258M8.82465 2.38333L1.76632 14.1667C1.62079 14.4187 1.54379 14.7044 1.54298 14.9954C1.54216 15.2864 1.61756 15.5726 1.76167 15.8254C1.90579 16.0783 2.11359 16.2889 2.36441 16.4365C2.61523 16.5841 2.90032 16.6635 3.19132 16.6667H17.308C17.599 16.6635 17.8841 16.5841 18.1349 16.4365C18.3857 16.2889 18.5935 16.0783 18.7376 15.8254C18.8817 15.5726 18.9571 15.2864 18.9563 14.9954C18.9555 14.7044 18.8785 14.4187 18.733 14.1667L11.6747 2.38333C11.5261 2.13841 11.3169 1.93593 11.0673 1.7954C10.8177 1.65487 10.5361 1.58104 10.2497 1.58104C9.96321 1.58104 9.68159 1.65487 9.43199 1.7954C9.18238 1.93593 8.97321 2.13841 8.82465 2.38333Z" stroke="#FF8D28" stroke-width="1.66667" stroke-linecap="round" stroke-linejoin="round"/>
</svg>
